<svg xmlns:dc="http://purl.org/dc/elements/1.1/" xmlns:cc="http://creativecommons.org/ns#" xmlns:rdf="http://www.w3.org/1999/02/22-rdf-syntax-ns#" xmlns:svg="http://www.w3.org/2000/svg" xmlns="http://www.w3.org/2000/svg" xmlns:xlink="http://www.w3.org/1999/xlink" id="svg218291" version="1.1" viewBox="313.55 334.31 396.9 99.39">
  <metadata id="metadata218297">
    <rdf:rdf>
      <cc:work rdf:about="">
        <dc:format>image/svg+xml</dc:format>
        <dc:type rdf:resource="http://purl.org/dc/dcmitype/StillImage"/>
      </cc:work>
    </rdf:rdf>
  </metadata>
  <defs id="defs218295"/>
  <linearGradient spreadMethod="pad" y2="30%" x2="-10%" y1="120%" x1="30%" id="3d_gradient2-logo-be15ec51-8b9b-4b66-af19-ed5c60197329">
    <stop id="stop218272" stop-opacity="1" stop-color="#ffffff" offset="0%"/>
    <stop id="stop218274" stop-opacity="1" stop-color="#000000" offset="100%"/>
  </linearGradient>
  <linearGradient gradientTransform="rotate(-30)" spreadMethod="pad" y2="30%" x2="-10%" y1="120%" x1="30%" id="3d_gradient3-logo-be15ec51-8b9b-4b66-af19-ed5c60197329">
    <stop id="stop218277" stop-opacity="1" stop-color="#ffffff" offset="0%"/>
    <stop id="stop218279" stop-opacity="1" stop-color="#cccccc" offset="50%"/>
    <stop id="stop218281" stop-opacity="1" stop-color="#000000" offset="100%"/>
  </linearGradient>
  <g id="logo-group">
    <image xlink:href="" id="container" x="272" y="144" width="480" height="480" style="display: none;" transform="translate(0 0)"/>
    <g id="logo-center" transform="translate(5.684341886080802e-14 0)">
      <image xlink:href="" id="icon_container" x="0" y="0" style="display: none;"/>
      <g id="slogan" style="font-style:normal;font-weight:400;font-size:32px;line-height:1;font-family:'Shadows Into Light';font-variant-ligatures:none;text-align:center;text-anchor:middle" transform="translate(0 0)"/>
      <g id="title" style="font-style:normal;font-weight:normal;font-size:72px;line-height:1;font-family:'Brandmark Script 8 Shadow';font-variant-ligatures:normal;text-align:center;text-anchor:middle" transform="translate(0 0)">
        <g id="path218300" aria-label="F" transform="translate(0 341.96896) translate(313.55435375 -7.657600000000009) scale(2.43) translate(-436.64975 40.32)"> <path class="c1" d="M90.56689,99.06347c1.5127,0,2.37598-0.35986,3.02441-0.79199l2.08789,3.45605 c-0.57617,0.57617-2.87988,1.80029-5.68848,1.80029c-6.04785,0-8.78418-5.40039-7.63281-9.86475 c1.29688-4.82471,5.47266-8.20898,14.18555-8.20898c7.56055,0,14.68945,1.29639,25.05859-0.57568l-1.44043,5.18408 c-4.46484,0.79199-8.64063,0.93604-12.5293,0.86426l-4.03223,14.97705c1.7998-0.07178,3.3125-0.21582,4.24805-1.00781 l3.16895,2.95215c-1.72852,2.23242-5.18457,2.37598-8.64063,2.3042c-3.45703,11.59326-8.71289,15.62549-15.55371,15.62549 c-4.32031,0-7.63281-2.37646-8.4248-3.38428l3.52832-2.88037c0.79199,0.79199,2.44824,1.58398,4.6084,1.58398 c4.10449,0,8.20898-3.38428,10.58496-10.87305c-1.5127,0.14404-2.73633,0.64844-3.45605,1.58447l-3.16895-2.95215 c1.72852-2.23242,4.75293-2.73633,7.77734-2.88037l4.10449-15.26563c-2.23242-0.14355-4.17676-0.21582-5.97656-0.21582 c-6.12109,0.07227-8.06543,1.58398-9.00098,3.88818C86.4624,96.75927,87.9751,99.06347,90.56689,99.06347z" transform="translate(358.25181 -125.19841)" stroke-width="0" stroke-linejoin="miter" stroke-miterlimit="2" fill="#094bd4" stroke="#094bd4"/> <linearGradient id="090ac439-7c4e-4519-b580-03c5a2e9751e" gradientUnits="userSpaceOnUse" x1="95.00926" y1="106.02786" x2="94.51351" y2="114.62085"> <stop offset="0.05566" style="stop-color:#000000"/> <stop offset="1" style="stop-color:#000000;stop-opacity:0"/> </linearGradient> <path class="highlight" fill="url(#090ac439-7c4e-4519-b580-03c5a2e9751e)" d="M97.11966,110.22411c-2.37598,7.48877-6.48047,10.87305-10.58496,10.87305l0.28809,4.68066 c6.84082,0,12.09668-4.03223,15.55371-15.62549C100.45245,110.05164,98.98266,110.08384,97.11966,110.22411z" transform="translate(358.25181 -125.19841)" stroke-width="0" stroke-linejoin="miter" stroke-miterlimit="2" opacity="0.5700000000000001"/> <linearGradient id="37d10b5d-3a19-471f-8482-7d52b32a2afc" gradientUnits="userSpaceOnUse" x1="104.35989" y1="86.28483" x2="101.37501" y2="112.08267"> <stop offset="0.03442" style="stop-color:#000000"/> <stop offset="0.30936" style="stop-color:#000000;stop-opacity:0"/> <stop offset="0.62194" style="stop-color:#000000;stop-opacity:0"/> <stop offset="0.87986" style="stop-color:#000000"/> </linearGradient> <path class="highlight" fill="url(#37d10b5d-3a19-471f-8482-7d52b32a2afc)" d="M103.60013,105.90379l4.03223-14.97705l-5.25586-0.21631L98.272,105.97606 c0,0,1.27881,0,2.78666-0.0378C102.1897,105.90991,103.60013,105.90379,103.60013,105.90379z" transform="translate(358.25181 -125.19841)" stroke-width="0" stroke-linejoin="miter" stroke-miterlimit="2" opacity="0.5700000000000001"/> </g>
        <g id="path218302" aria-label="a" transform="translate(0 341.96896) translate(387.43826075000004 32.933119999999995) scale(2.43) translate(-467.05465 23.616)"> <path class="c1" d="M110.05497,112.31299c-2.5918,7.12891-4.75244,9.2168-5.9043,9.00098 c-0.93604-0.14404-0.86426-2.08838-0.28809-4.17676l4.03223-14.97705h-4.82422l-0.43213,1.58398 c-1.00781-1.2959-2.52002-2.16016-4.6084-2.16016c-4.96826,0-9.07275,4.17627-11.16113,10.15283 c-2.52002,7.12891-0.71973,14.0415,5.47266,14.0415c2.52002,0,4.89648-1.36816,6.84082-3.3125 c0.64795,1.94434,2.52002,3.3125,4.53613,3.3125c4.89648,0,8.13672-5.40039,10.51318-12.45703L110.05497,112.31299z M100.7664,110.65674l-0.72021,2.66455c-1.58398,5.47217-5.25635,8.7124-7.70459,7.84863 c-2.08838-0.72021-2.66406-3.67236-0.72021-8.64111c1.72852-4.46436,4.68066-7.05615,7.34473-6.19238 C100.19022,106.76855,101.2703,108.35254,100.7664,110.65674z" transform="translate(381.286384 -125.19997)" stroke-width="0" stroke-linejoin="miter" stroke-miterlimit="2" fill="#094bd4" stroke="#094bd4"/> <linearGradient id="d84ccea8-7876-4150-a6a4-cf0cde37fc3d" gradientUnits="userSpaceOnUse" x1="103.25671" y1="109.15665" x2="97.80662" y2="107.17479"> <stop offset="0" style="stop-color:#000000"/> <stop offset="1" style="stop-color:#000000;stop-opacity:0"/> </linearGradient> <path class="highlight" fill="url(#d84ccea8-7876-4150-a6a4-cf0cde37fc3d)" d="M102.6385,103.74413c-1.00781-1.2959-2.52002-2.16016-4.6084-2.16016 c-4.35468,0-8.04538,3.20872-10.29691,8.02567h5.35559c1.68933-2.6066,3.86575-3.92543,5.87735-3.27322 c1.22412,0.43213,2.3042,2.01611,1.80029,4.32031L102.6385,103.74413z" transform="translate(381.286384 -125.19997)" stroke-width="0" stroke-linejoin="miter" stroke-miterlimit="2" opacity="0.5700000000000001"/> <linearGradient id="46eabb32-6a56-4ad1-b418-140707e8f377" gradientUnits="userSpaceOnUse" x1="102.1292" y1="118.57168" x2="93.86115" y2="119.8413"> <stop offset="0" style="stop-color:#000000"/> <stop offset="1" style="stop-color:#000000;stop-opacity:0"/> </linearGradient> <path class="highlight" fill="url(#46eabb32-6a56-4ad1-b418-140707e8f377)" d="M92.34162,121.16991c-1.67035-0.57605-2.37258-2.58141-1.59231-5.90297h-4.78242 c-0.89197,5.71877,1.21909,10.51137,6.37473,10.51137c2.52002,0,4.89648-1.36816,6.84082-3.3125 c-0.97997-2.6127,0.05134-6.31776,0.86377-9.14453C98.46223,118.79344,94.78986,122.03368,92.34162,121.16991z" transform="translate(381.286384 -125.19997)" stroke-width="0" stroke-linejoin="miter" stroke-miterlimit="2" opacity="0.5700000000000001"/> </g>
        <g id="path218304" aria-label="v" transform="translate(0 341.96896) translate(444.1583730500001 34.3328) scale(2.43) translate(-490.39626 23.04)"> <path class="c1" d="M102.85951,117.71337c-2.0166,4.46436-5.47266,8.06494-10.15332,8.06494 c-6.625,0-8.13672-7.41699-7.05664-12.45703c1.08008-4.96875,2.95215-8.71289,4.53613-11.16113h4.96875 c-1.7998,2.88037-3.81641,7.27246-4.68066,11.01709c-1.00781,4.32031-0.43164,7.84863,2.0166,8.2085 c2.87988,0.43213,5.83203-3.02441,6.98438-8.85693c0.50391-2.5918,0.71973-5.76025,0.50391-8.56836l4.53613-1.80029 c0,4.6084-0.28711,12.96094,3.24121,12.88916c1.2959,0,2.23145-1.22412,2.66406-2.73633l4.24805,1.0083 c-1.94434,5.61621-5.1123,6.33643-7.2002,6.33643C105.81166,119.65771,103.43471,118.50536,102.85951,117.71337z" transform="translate(405.064373 -125.20015)" stroke-width="0" stroke-linejoin="miter" stroke-miterlimit="2" fill="#094bd4" stroke="#094bd4"/> <linearGradient id="399df455-785a-4bf1-952a-53ecaf43e85a" gradientUnits="userSpaceOnUse" x1="105.42406" y1="110.51274" x2="94.85004" y2="119.36274"> <stop offset="0" style="stop-color:#000000"/> <stop offset="1" style="stop-color:#000000;stop-opacity:0"/> </linearGradient> <path class="highlight" fill="url(#399df455-785a-4bf1-952a-53ecaf43e85a)" d="M102.85951,117.71336c-2.0166,4.46436-5.47266,8.06495-10.15332,8.06495l-0.21582-4.39258 c2.87988,0.43213,5.83203-3.02441,6.98438-8.85693c0.28896-1.48622,0.48318-3.16206,0.55561-4.85083 C100.07397,109.52893,99.69173,114.7595,102.85951,117.71336z" transform="translate(405.064373 -125.20015)" stroke-width="0" stroke-linejoin="miter" stroke-miterlimit="2" opacity="0.5700000000000001"/> </g>
        <g id="path218306" aria-label="e" transform="translate(0 341.96896) translate(503.16151894999985 32.933119999999995) scale(2.43) translate(-514.67739 23.616)"> <path class="c1" d="M107.4193,112.31299c-2.95313,7.34473-7.99316,9.00098-10.51367,9.00098 c-1.58398,0-3.81592-1.29639-3.81592-4.24854c4.96826-0.43213,11.88135-3.16846,12.88916-9.00098 c0.28809-1.72803,0.07227-3.31201-1.15234-4.68018c-1.00781-1.15234-2.66406-1.80029-4.6084-1.80029 c-7.70459,0-11.73682,8.71289-11.88086,14.90527c-0.14404,5.11279,3.09619,9.28906,8.20898,9.28906 c3.45605,0,10.29688-1.22412,15.12109-12.45703L107.4193,112.31299z M96.40172,107.99268 c1.08008-1.22412,3.16797-2.66406,4.75293-1.65625c0.43164,0.28809,0.64746,0.79199,0.64746,1.15234 c0,2.37598-4.53613,4.6084-7.92041,5.04004C94.3856,110.94482,95.24986,109.36084,96.40172,107.99268z" transform="translate(426.344733 -125.19998)" stroke-width="0" stroke-linejoin="miter" stroke-miterlimit="2" fill="#094bd4" stroke="#094bd4"/> <linearGradient id="eddac98b-ae43-4d95-a9eb-78ec15b57fa1" gradientUnits="userSpaceOnUse" x1="88.94456" y1="112.04886" x2="97.93105" y2="112.29011"> <stop offset="0.05566" style="stop-color:#000000"/> <stop offset="1" style="stop-color:#000000;stop-opacity:0"/> </linearGradient> <path class="highlight" fill="url(#eddac98b-ae43-4d95-a9eb-78ec15b57fa1)" d="M93.08974,117.06541c4.96826-0.43213,11.88135-3.16846,12.88916-9.00098l-4.17676-0.57568 c0,2.37598-4.53613,4.6084-7.92041,5.04004C93.38009,113.99014,93.09414,115.49767,93.08974,117.06541z" transform="translate(426.344733 -125.19998)" stroke-width="0" stroke-linejoin="miter" stroke-miterlimit="2" opacity="0.5700000000000001"/> </g>
        <g id="path218308" aria-label="r" transform="translate(0 341.96896) translate(549.5207187499999 29.026484329999995) scale(2.43) translate(-533.75525 25.223669)"> <path class="c1" d="M93.12354,119.80175c0.28809-5.18457,4.39258-8.64063,5.9043-12.16895l-4.17578-1.36816 c-0.07227,1.51221-1.00879,5.40039-1.72852,7.48828l-4.17676-1.08008c0.79297-1.7998,1.72852-6.33643,1.72852-7.92041 c-0.93555-0.79199-1.51172-3.02441,0.07227-4.24854c1.2959-1.00781,3.3125-0.50391,4.24805,0.93604 c1.2959,0.57617,4.10449,1.36816,6.91309,2.3042c1.51172,0.50439,2.73633,0.86426,3.16797,1.94434 s-0.64844,2.66406-2.95215,5.97656c-1.65625,2.37598-4.32031,5.9043-4.24805,8.06445c0,1.0083,0.64746,1.58447,1.51172,1.58447 c1.7998,0,5.1123-2.3042,7.41699-9.00098l4.24805,1.0083c-2.87988,8.2085-6.91309,12.45703-11.95313,12.45703 C95.64404,125.77831,92.90771,123.18603,93.12354,119.80175z" transform="translate(444.80848 -125.199998)" stroke-width="0" stroke-linejoin="miter" stroke-miterlimit="2" fill="#094bd4" stroke="#094bd4"/> <linearGradient id="b685000e-9f9c-4ddc-96d6-abf4e85a7c2a" gradientUnits="userSpaceOnUse" x1="94.00229" y1="101.03913" x2="91.59222" y2="110.75031"> <stop offset="0.20281" style="stop-color:#000000"/> <stop offset="1" style="stop-color:#000000;stop-opacity:0"/> </linearGradient> <path class="highlight" fill="url(#b685000e-9f9c-4ddc-96d6-abf4e85a7c2a)" d="M94.85205,106.26463c-0.07227,1.51221-1.00879,5.4004-1.72852,7.48829l-4.17676-1.08008 c0.79297-1.7998,1.72852-6.33643,1.72852-7.92042C91.40752,105.38128,93.52961,105.78746,94.85205,106.26463z" transform="translate(444.80848 -125.199998)" stroke-width="0" stroke-linejoin="miter" stroke-miterlimit="2" opacity="0.5700000000000001"/> <linearGradient id="64a78648-55c7-4413-91c8-326202db7b56" gradientUnits="userSpaceOnUse" x1="102.78896" y1="106.28722" x2="98.84635" y2="112.88506"> <stop offset="0.05566" style="stop-color:#000000"/> <stop offset="1" style="stop-color:#000000;stop-opacity:0"/> </linearGradient> <path class="highlight" fill="url(#64a78648-55c7-4413-91c8-326202db7b56)" d="M93.12354,119.80175c0.28809-5.18457,4.39258-8.64063,5.9043-12.16895 c2.05922,0.64295,4.31308,1.65143,4.42761,2.09702c-0.38332,0.57117-0.82796,1.212-1.33093,1.93522 c-1.65625,2.37598-4.32031,5.9043-4.24805,8.06445L93.12354,119.80175z" transform="translate(444.80848 -125.199998)" stroke-width="0" stroke-linejoin="miter" stroke-miterlimit="2" opacity="0.5700000000000001"/> </g>
        <g id="path218310" aria-label="o" transform="translate(0 341.96896) translate(590.6923059499998 32.933119999999995) scale(2.43) translate(-550.69829 23.616)"> <path class="c1" d="M109.24422,112.31299c-0.71973,2.52051-2.30371,3.45654-3.74414,3.45654 c-0.21582,0-0.35938,0-0.57617-0.07227c2.0166-6.9126,0.2168-12.45703-4.67969-13.8252 c-0.57617-0.14404-1.36816-0.28809-1.87207-0.28809c-4.89648,0-9.07324,3.67236-11.01758,9.93701 c-2.16016,7.12842-0.07227,12.67285,4.89648,14.04102c0.64844,0.14404,1.2959,0.21631,1.94434,0.21631 c3.16797,0,6.55273-1.94434,8.85645-5.76074c0.64844,0.21631,1.36816,0.28809,2.37695,0.28809 c2.66406,0,6.26367-1.22412,8.06445-6.98438L109.24422,112.31299z M101.03621,112.16895 c-1.94434,0.50391-3.16895,4.03223-1.87207,5.32861c-1.58496,2.59229-3.67285,3.96045-5.3291,3.67236 c-2.51953-0.50439-3.59961-3.74463-1.87207-8.71289c1.5127-4.32031,4.75293-6.98438,7.12891-6.12061 C100.67586,106.9126,101.54012,109.00098,101.03621,112.16895z" transform="translate(464.191536 -125.19996)" stroke-width="0" stroke-linejoin="miter" stroke-miterlimit="2" fill="#094bd4" stroke="#094bd4"/> <linearGradient id="8bc21d18-32c6-47b1-a329-b6420ad96cd5" gradientUnits="userSpaceOnUse" x1="97.87502" y1="115.66622" x2="101.34937" y2="109.19674"> <stop offset="0" style="stop-color:#000000"/> <stop offset="1" style="stop-color:#000000;stop-opacity:0"/> </linearGradient> <path class="highlight" fill="url(#8bc21d18-32c6-47b1-a329-b6420ad96cd5)" d="M99.09188,106.33641c1.58398,0.57617,2.44824,2.66455,1.94434,5.83252 c-0.04245,1.42365,1.51645,3.08606,3.8877,3.52832c2.0166-6.9126,0.2168-12.45703-4.67969-13.8252 c-0.57617-0.14404-1.36816-0.28809-1.87207-0.28809L99.09188,106.33641z" transform="translate(464.191536 -125.19996)" stroke-width="0" stroke-linejoin="miter" stroke-miterlimit="2" opacity="0.5700000000000001"/> <linearGradient id="3eb3e627-b855-47dd-86ac-4128fcf3b41a" gradientUnits="userSpaceOnUse" x1="102.14655" y1="115.38183" x2="97.83356" y2="121.49189"> <stop offset="0" style="stop-color:#000000"/> <stop offset="1" style="stop-color:#000000;stop-opacity:0"/> </linearGradient> <path class="highlight" fill="url(#3eb3e627-b855-47dd-86ac-4128fcf3b41a)" d="M99.16415,117.49754c-1.58496,2.59229-3.67285,3.96045-5.3291,3.67236l-1.58398,4.39209 c0.64844,0.14404,1.2959,0.21631,1.94434,0.21631c3.16797,0,6.55273-1.94434,8.85645-5.76074 C101.07064,119.48761,99.67611,118.27946,99.16415,117.49754z" transform="translate(464.191536 -125.19996)" stroke-width="0" stroke-linejoin="miter" stroke-miterlimit="2" opacity="0.5700000000000001"/> </g>
        <g id="path218312" aria-label="n" transform="translate(0 341.96896) translate(636.9624462499999 32.933119999999995) scale(2.43) translate(-569.7395 23.616)"> <path class="c1" d="M89.70313,125.20214h-4.82422l6.19238-23.04199h4.82422l-0.5752,2.08838 c1.87207-1.65625,4.03223-2.66455,6.26367-2.66455c1.65625,0,3.52832,0.86426,4.46484,2.52051 c1.08008,1.94385,1.08008,3.95996,0.14355,7.20068l-1.72754,5.9043c-0.7207,2.37598-0.86426,3.88818,0.28809,4.17627 c1.58398,0.35986,3.95996-2.59229,6.12012-9.07275l4.24805,1.0083c-2.44824,7.12842-6.26367,12.45703-11.0166,12.45703 c-2.30371,0-3.74414-1.36816-4.39258-3.16846c-0.71973-2.16016-0.50391-4.39209,0.36035-7.20068l1.44043-4.68018 c0.79199-2.80859,0.79199-4.32031-0.14453-4.75244c-1.65625-0.79199-5.1123,1.80029-7.2002,5.97656 c-1.00879,1.94385-1.87207,4.104-2.88086,7.34473L89.70313,125.20214z" transform="translate(484.86059 -125.19998)" stroke-width="0" stroke-linejoin="miter" stroke-miterlimit="2" fill="#094bd4" stroke="#094bd4"/> <linearGradient id="a929fb32-d1ff-442a-916f-275f3300a3f9" gradientUnits="userSpaceOnUse" x1="91.48785" y1="109.22788" x2="97.88999" y2="110.71131"> <stop offset="0" style="stop-color:#000000"/> <stop offset="1" style="stop-color:#000000;stop-opacity:0"/> </linearGradient> <path class="highlight" fill="url(#a929fb32-d1ff-442a-916f-275f3300a3f9)" d="M95.32031,104.24853c1.87207-1.65625,4.03223-2.66455,6.26367-2.66455 c1.65625,0,3.52832,0.86426,4.46484,2.52051c1.08008,1.94385,1.08008,3.95996,0.14355,7.20068l-4.67969-0.57617 c0.79199-2.80859,0.79199-4.32031-0.14453-4.75244c-1.65625-0.79199-5.1123,1.80029-7.2002,5.97656 c-1.00879,1.94385-1.87207,4.104-2.88086,7.34473L95.32031,104.24853z" transform="translate(484.86059 -125.19998)" stroke-width="0" stroke-linejoin="miter" stroke-miterlimit="2" opacity="0.5700000000000001"/> </g>
             </g>
      <image xlink:href="" id="icon" x="0" y="0" style="display: none;"/>
    </g>
  </g>
</svg>