<svg viewBox="0 0 800 500" xmlns="http://www.w3.org/2000/svg">
  <!-- Background -->
  <defs>
    <linearGradient id="skyGradient" x1="0%" y1="0%" x2="0%" y2="100%">
      <stop offset="0%" stop-color="#87CEEB" />
      <stop offset="100%" stop-color="#E0F7FA" />
    </linearGradient>
    <linearGradient id="groundGradient" x1="0%" y1="0%" x2="0%" y2="100%">
      <stop offset="0%" stop-color="#8BC34A" />
      <stop offset="100%" stop-color="#689F38" />
    </linearGradient>
    <linearGradient id="sweatGradient" x1="0%" y1="0%" x2="0%" y2="100%">
      <stop offset="0%" stop-color="#FFFFFF" />
      <stop offset="100%" stop-color="#B3E5FC" />
    </linearGradient>
  </defs>
  
  <!-- Sky -->
  <rect width="800" height="350" fill="url(#skyGradient)" />
  
  <!-- Sun -->
  <circle cx="700" cy="80" r="60" fill="#FFD54F">
    <animate attributeName="opacity" values="0.8;1;0.8" dur="3s" repeatCount="indefinite" />
  </circle>
  
  <!-- Ground -->
  <rect x="0" y="350" width="800" height="150" fill="url(#groundGradient)" />
  
  <!-- Project Platform - now smaller and in center -->
  <rect x="300" y="300" width="200" height="100" rx="10" fill="#A1887F" />
  <rect x="320" y="310" width="160" height="80" rx="5" fill="#D7CCC8" />
  
  <!-- Project Elements scattered across ground -->
  <rect x="100" y="390" width="50" height="50" fill="#BBDEFB" />
  <rect x="670" y="400" width="40" height="40" fill="#C8E6C9" />
  <rect x="450" y="380" width="60" height="60" fill="#FFCCBC" />
  
  <!-- Tools scattered around -->
  <rect x="230" y="420" width="15" height="40" fill="#795548" />
  <rect x="400" y="380" width="30" height="10" fill="#607D8B" />
  <circle cx="550" cy="420" r="10" fill="#FFB74D" />
  <rect x="180" y="400" width="25" height="25" fill="#90A4AE" />
  <rect x="600" y="410" width="20" height="15" fill="#A5D6A7" />
  
  <!-- Monkey 1 - Working with tools intensely and moving around -->
  <g id="monkey1">
    <!-- Body -->
    <ellipse cx="0" cy="50" rx="25" ry="30" fill="#8D6E63" />
    <!-- Head -->
    <circle cx="0" cy="0" r="25" fill="#A1887F" />
    <!-- Face -->
    <circle cx="-10" cy="-5" r="5" fill="#FFFFFF" />
    <circle cx="-10" cy="-5" r="2" fill="#000000" />
    <circle cx="10" cy="-5" r="5" fill="#FFFFFF" />
    <circle cx="10" cy="-5" r="2" fill="#000000" />
    <!-- Expression of effort -->
    <path d="M-10 15 Q0 20 10 15" stroke="#5D4037" fill="none" stroke-width="2" />
    <path d="M-5 5 L-15 0" stroke="#5D4037" fill="none" stroke-width="1" />
    <path d="M5 5 L15 0" stroke="#5D4037" fill="none" stroke-width="1" />
    <!-- Ears -->
    <circle cx="-25" cy="-10" r="8" fill="#8D6E63" />
    <circle cx="25" cy="-10" r="8" fill="#8D6E63" />
    <!-- Arms -->
    <path d="M-25 50 Q-40 80 -30 100" stroke="#8D6E63" fill="none" stroke-width="10">
      <animateTransform attributeName="transform" type="rotate" values="0 -25 50; 5 -25 50; 0 -25 50" dur="0.3s" repeatCount="indefinite" />
    </path>
    <path d="M25 50 Q40 80 50 100" stroke="#8D6E63" fill="none" stroke-width="10">
      <animateTransform attributeName="transform" type="rotate" values="0 25 50; -5 25 50; 0 25 50" dur="0.3s" repeatCount="indefinite" />
    </path>
    <!-- Hammer animation with more vigor -->
    <rect x="40" y="100" width="30" height="10" fill="#795548">
      <animateTransform attributeName="transform" type="rotate" from="-10 50 100" to="40 50 100" dur="0.3s" repeatCount="indefinite" />
    </rect>
    <!-- Legs -->
    <path d="M-15 80 Q-20 110 -10 130" stroke="#8D6E63" fill="none" stroke-width="10" />
    <path d="M15 80 Q20 110 30 130" stroke="#8D6E63" fill="none" stroke-width="10" />
    <!-- Bandana -->
    <path d="M-25 -15 Q0 -25 25 -15" fill="#FF5722" />
    <path d="M20 -15 L30 -5" fill="#FF5722" stroke="#FF5722" stroke-width="1" />
    <!-- Sweat drops -->
    <circle cx="-20" cy="-10" r="3" fill="url(#sweatGradient)">
      <animate attributeName="cy" values="-10;0;-10" dur="0.5s" repeatCount="indefinite" />
    </circle>
    <circle cx="20" cy="-5" r="2" fill="url(#sweatGradient)">
      <animate attributeName="cy" values="-5;5;-5" dur="0.7s" repeatCount="indefinite" />
    </circle>
    
    <!-- Random movement across screen -->
    <animateTransform attributeName="transform" type="translate" 
                      values="200,200; 500,250; 300,180; 100,320; 600,280; 400,200; 200,200" 
                      dur="15s" repeatCount="indefinite" />
  </g>
  
  <!-- Monkey 2 - Carrying heavy parts and moving randomly -->
  <g id="monkey2">
    <!-- Body -->
    <ellipse cx="0" cy="50" rx="25" ry="30" fill="#795548" />
    <!-- Head -->
    <circle cx="0" cy="0" r="25" fill="#8D6E63" />
    <!-- Face showing strain -->
    <circle cx="-10" cy="-5" r="5" fill="#FFFFFF" />
    <circle cx="-10" cy="-5" r="2" fill="#000000" />
    <circle cx="10" cy="-5" r="5" fill="#FFFFFF" />
    <circle cx="10" cy="-5" r="2" fill="#000000" />
    <path d="M-10 15 Q0 10 10 15" stroke="#5D4037" fill="none" stroke-width="2" />
    <!-- Ears -->
    <circle cx="-25" cy="-10" r="8" fill="#795548" />
    <circle cx="25" cy="-10" r="8" fill="#795548" />
    <!-- Arms straining -->
    <path d="M-25 50 Q-40 80 -50 100" stroke="#795548" fill="none" stroke-width="12">
      <animate attributeName="d" values="M-25 50 Q-40 80 -50 100; M-25 50 Q-45 85 -50 100; M-25 50 Q-40 80 -50 100" dur="1s" repeatCount="indefinite" />
    </path>
    <path d="M25 50 Q40 80 50 100" stroke="#795548" fill="none" stroke-width="12">
      <animate attributeName="d" values="M25 50 Q40 80 50 100; M25 50 Q45 85 50 100; M25 50 Q40 80 50 100" dur="1s" repeatCount="indefinite" />
    </path>
    <!-- Heavy box being carried -->
    <rect x="-70" y="80" width="50" height="40" fill="#FFE0B2" stroke="#795548" stroke-width="2" />
    <line x1="-60" y1="80" x2="-60" y2="120" stroke="#795548" stroke-width="1" />
    <line x1="-50" y1="80" x2="-50" y2="120" stroke="#795548" stroke-width="1" />
    <line x1="-40" y1="80" x2="-40" y2="120" stroke="#795548" stroke-width="1" />
    <!-- Legs bending with effort -->
    <path d="M-15 80 Q-20 110 -30 130" stroke="#795548" fill="none" stroke-width="10">
      <animate attributeName="d" values="M-15 80 Q-20 110 -30 130; M-15 80 Q-25 115 -30 130; M-15 80 Q-20 110 -30 130" dur="1s" repeatCount="indefinite" />
    </path>
    <path d="M15 80 Q20 110 30 130" stroke="#795548" fill="none" stroke-width="10">
      <animate attributeName="d" values="M15 80 Q20 110 30 130; M15 80 Q15 115 30 130; M15 80 Q20 110 30 130" dur="1s" repeatCount="indefinite" />
    </path>
    <!-- Bandana -->
    <path d="M-25 -15 Q0 -25 25 -15" fill="#9C27B0" />
    <path d="M20 -15 L30 -5" fill="#9C27B0" stroke="#9C27B0" stroke-width="1" />
    <!-- Sweat drops -->
    <circle cx="-20" cy="10" r="3" fill="url(#sweatGradient)">
      <animate attributeName="cy" values="10;20;10" dur="0.6s" repeatCount="indefinite" />
    </circle>
    <circle cx="20" cy="5" r="2" fill="url(#sweatGradient)">
      <animate attributeName="cy" values="5;15;5" dur="0.8s" repeatCount="indefinite" />
    </circle>
    
    <!-- Random movement path across screen -->
    <animateTransform attributeName="transform" type="translate" 
                      values="500,350; 150,400; 600,420; 300,380; 700,370; 200,410; 500,350" 
                      dur="18s" repeatCount="indefinite" />
  </g>
  
  <!-- Monkey 3 - Writing intensely with tongue out, scratching head -->
  <g id="monkey3">
    <!-- Body -->
    <ellipse cx="0" cy="50" rx="25" ry="30" fill="#6D4C41" />
    <!-- Head -->
    <circle cx="0" cy="0" r="25" fill="#795548" />
    <!-- Face -->
    <circle cx="-10" cy="-5" r="5" fill="#FFFFFF" />
    <circle cx="-10" cy="-5" r="2" fill="#000000" />
    <circle cx="10" cy="-5" r="5" fill="#FFFFFF" />
    <circle cx="10" cy="-5" r="2" fill="#000000" />
    <!-- Tongue sticking out -->
    <path d="M0 15 L0 25" stroke="#E57373" stroke-width="4" stroke-linecap="round">
      <animate attributeName="d" values="M0 15 L0 25; M0 15 L2 27; M0 15 L0 25" dur="1.5s" repeatCount="indefinite" />
    </path>
    <!-- Ears -->
    <circle cx="-25" cy="-10" r="8" fill="#6D4C41" />
    <circle cx="25" cy="-10" r="8" fill="#6D4C41" />
    <!-- Writing arm -->
    <path d="M-25 50 Q-40 60 -50 80" stroke="#6D4C41" fill="none" stroke-width="10">
      <animate attributeName="d" values="M-25 50 Q-40 60 -50 80; M-25 50 Q-35 65 -50 80; M-25 50 Q-40 60 -50 80" dur="0.5s" repeatCount="indefinite" />
    </path>
    <!-- Scratching head arm -->
    <path d="M25 50 Q30 30 25 5" stroke="#6D4C41" fill="none" stroke-width="10">
      <animate attributeName="d" values="M25 50 Q30 30 25 5; M25 50 Q32 25 30 0; M25 50 Q30 30 25 5" dur="0.7s" repeatCount="indefinite" />
    </path>
    <!-- Clipboard and paper -->
    <rect x="-70" y="70" width="30" height="40" fill="#FFFFFF" stroke="#795548" stroke-width="1" />
    <rect x="-65" y="75" width="20" height="30" fill="#F5F5F5" />
    <!-- Pen -->
    <rect x="-55" y="75" width="2" height="10" fill="#3F51B5">
      <animate attributeName="x" values="-55;-52;-57;-55" dur="0.5s" repeatCount="indefinite" />
      <animate attributeName="y" values="75;77;78;75" dur="0.5s" repeatCount="indefinite" />
    </rect>
    <!-- Legs -->
    <path d="M-15 80 Q-20 110 -30 130" stroke="#6D4C41" fill="none" stroke-width="10" />
    <path d="M15 80 Q20 110 30 130" stroke="#6D4C41" fill="none" stroke-width="10" />
    
    <!-- Bandana -->
    <path d="M-25 -15 Q0 -25 25 -15" fill="#4CAF50" />
    <path d="M20 -15 L35 -5" fill="#4CAF50" stroke="#4CAF50" stroke-width="1" />
    
    <!-- Sweat drops from intense thinking -->
    <circle cx="-20" cy="0" r="3" fill="url(#sweatGradient)">
      <animate attributeName="cy" values="0;10;0" dur="0.7s" repeatCount="indefinite" />
    </circle>
    <circle cx="20" cy="5" r="2" fill="url(#sweatGradient)">
      <animate attributeName="cy" values="5;15;5" dur="0.9s" repeatCount="indefinite" />
    </circle>
    
    <!-- Thinking animation with more intensity -->
    <animateTransform attributeName="transform" type="rotate" values="-2 0 50; 3 0 50; -2 0 50" dur="0.6s" repeatCount="indefinite" />
    
    <!-- Random movement path across screen -->
    <animateTransform attributeName="transform" type="translate" 
                      values="150,200; 700,300; 400,400; 200,350; 600,200; 300,300; 150,200" 
                      dur="20s" repeatCount="indefinite" additive="sum" />
  </g>
  
  <!-- Loading text -->
  
  <!-- Loading dots -->
  <circle cx="510" cy="450" r="5" fill="#FFFFFF">
    <animate attributeName="opacity" values="0.2;1;0.2" dur="1.5s" repeatCount="indefinite" begin="0s" />
  </circle>
  <circle cx="530" cy="450" r="5" fill="#FFFFFF">
    <animate attributeName="opacity" values="0.2;1;0.2" dur="1.5s" repeatCount="indefinite" begin="0.5s" />
  </circle>
  <circle cx="550" cy="450" r="5" fill="#FFFFFF">
    <animate attributeName="opacity" values="0.2;1;0.2" dur="1.5s" repeatCount="indefinite" begin="1s" />
  </circle>
  

  <!-- Floating clouds -->
  <ellipse cx="100" cy="100" rx="50" ry="30" fill="#FFFFFF" opacity="0.8">
    <animate attributeName="cx" values="100;700;100" dur="30s" repeatCount="indefinite" />
  </ellipse>
  <ellipse cx="130" cy="90" rx="60" ry="25" fill="#FFFFFF" opacity="0.9">
    <animate attributeName="cx" values="130;650;130" dur="25s" repeatCount="indefinite" />
  </ellipse>
  <ellipse cx="500" cy="120" rx="70" ry="40" fill="#FFFFFF" opacity="0.7">
    <animate attributeName="cx" values="500;100;500" dur="35s" repeatCount="indefinite" />
  </ellipse>
</svg>
